<?xml version="1.0" encoding="UTF-8"?>
<svg id="Layer_1" data-name="Layer 1" xmlns="http://www.w3.org/2000/svg" viewBox="0 0 1024 1024">
  <defs>
    <style>
      .cls-1 {
        fill: #000000;
      }
      .cls-2 {
        fill: #FFC125;
      }
    </style>
  </defs>
  <path class="cls-1" d="M0,0h1024v1024H0V0ZM502.65,789.42h55.5s135.62-.62,135.62-.62c83.09-.38,151.58-69.67,151.71-153.14l.45-307.48c.01-8.73-1.2-16.64-2.56-24.71-10.77-64.02-59.02-114.33-122.24-128.62-15.95-3.61-31.45-4.11-48.35-4.12l-329.66-.03c-32.46,0-63.49,8.02-90.72,26.07-40.18,26.63-71.36,71.53-71.48,121.57l-.72,322.55c-.08,35.13,16.63,67.83,36.89,94.58,4.1,5.41,5.5,7.95,3.82,14.51l-14.84,57.95c-2.93,11.43.03,21.89,8.52,29.2,7.82,6.73,19.77,9.72,30.16,4.38l94.12-48.32c2.98-1.53,7.01-3.9,10.38-3.89l153.39.12Z"/>
  <g>
    <path class="cls-2" d="M502.65,789.42l-153.39-.12c-3.37,0-7.4,2.36-10.38,3.89l-94.12,48.32c-10.4,5.34-22.35,2.35-30.16-4.38-8.49-7.32-11.45-17.77-8.52-29.2l14.84-57.95c1.68-6.57.28-9.11-3.82-14.51-20.27-26.75-36.97-59.45-36.89-94.58l.72-322.55c.11-50.04,31.29-94.94,71.48-121.57,27.23-18.05,58.26-26.07,90.72-26.07l329.66.03c16.9,0,32.39.51,48.35,4.12,63.22,14.29,111.47,64.6,122.24,128.62,1.36,8.07,2.57,15.97,2.56,24.71l-.45,307.48c-.12,83.47-68.61,152.76-151.71,153.14l-135.62.62h-55.5ZM337.59,780.32c4.61-2.38,8.76-2.88,13.65-2.88l339.61-.33c34.89-.03,67.41-13.72,93.2-36.01,29.8-25.76,46.77-61.29,49.67-100.7l-.56-317.8c-.06-35.1-16.23-67.95-39.75-92.93-26.89-28.56-63.7-46.38-103.56-46.38l-353.69-.07c-21.97,0-41.89,5.44-61.17,14.72-47.8,22.99-79.59,69.97-83.21,123.19l-.02,325.8c4.09,32.28,18.13,60.92,38.6,85.7,3.17,3.84,3.79,11.4,2.57,16.31l-15.17,60.88c-1.93,7.74-.16,14.57,5.87,19.09,5.95,4.46,12.68,3.7,19.55.15l94.4-48.72Z"/>
    <path class="cls-1" d="M337.59,780.32l-94.4,48.72c-6.86,3.54-13.59,4.31-19.55-.15-6.03-4.52-7.8-11.35-5.87-19.09l15.17-60.88c1.22-4.91.6-12.48-2.57-16.31-20.47-24.78-34.51-53.41-38.6-85.7l.02-325.8c3.62-53.22,35.41-100.2,83.21-123.19,19.28-9.27,39.2-14.72,61.17-14.72l353.69.07c39.85,0,76.67,17.82,103.56,46.38,23.51,24.97,39.69,57.83,39.75,92.93l.56,317.8c-2.91,39.41-19.87,74.95-49.67,100.7-25.79,22.29-58.31,35.98-93.2,36.01l-339.61.33c-4.89,0-9.04.5-13.65,2.88ZM716.03,651.67c25.71-19.06,38.21-47.28,38.24-78.8l.18-152.65c.06-55.85-41.15-100.98-97.75-101.07l-89.7-.14c-.9,0-2.7-.67-3.33-1.03s-.44-2.81.18-3.56l48.7-58.64c5.19-6.25,5.65-14.77.05-20.32-5.88-5.84-16.12-4.64-21.53,1.7l-65.31,76.61c-6.48,7.6-20.97,7.17-27.29-.11l-65.54-75.46c-4.52-5.2-9.95-7.51-17.12-6.06-4.23.86-8.26,4.7-9.15,8.06-1.16,4.38-1.14,9.71,1.88,13.25l51.4,60.36c.64.75,1.26,3.58.5,4.16-.6.46-2.48,1.08-3.42,1.08l-87.03.1c-31.01.04-59.04,12.26-78.35,36.57-14.05,17.69-20.92,38.46-20.98,61.28l-.14,54.82.45,107.13c.2,48.72,44.41,91.93,93.19,91.93l293.65.04c21.66,0,40.97-6.48,58.22-19.26Z"/>
    <g>
      <path class="cls-2" d="M716.03,651.67c-17.24,12.78-36.55,19.27-58.22,19.26l-293.65-.04c-48.78,0-92.98-43.21-93.19-91.93l-.45-107.13.14-54.82c.06-22.82,6.93-43.59,20.98-61.28,19.31-24.3,47.34-36.53,78.35-36.57l87.03-.1c.94,0,2.81-.62,3.42-1.08.75-.58.14-3.41-.5-4.16l-51.4-60.36c-3.02-3.55-3.04-8.87-1.88-13.25.89-3.37,4.92-7.21,9.15-8.06,7.17-1.45,12.6.86,17.12,6.06l65.54,75.46c6.33,7.28,20.82,7.71,27.29.11l65.31-76.61c5.41-6.35,15.65-7.54,21.53-1.7,5.6,5.56,5.14,14.07-.05,20.32l-48.7,58.64c-.62.75-.81,3.21-.18,3.56s2.43,1.02,3.33,1.03l89.7.14c56.6.09,97.82,45.22,97.75,101.07l-.18,152.65c-.04,31.52-12.53,59.74-38.24,78.8ZM710.74,596.8c5.5-10.84,7.18-21.29,7.18-32.92l.03-135.77c0-10.9-.43-20.97-4.02-31.42-8.76-25.47-33.74-45.09-61.33-45.15l-174.54-.37-107.02.61c-33.02.19-59.77,27.84-63.03,60.12l.2,160.07c.04,33.16,31.83,61.66,67.24,61.66l275.08-.02c25.71,0,48.8-14.36,60.21-36.83Z"/>
      <path class="cls-1" d="M710.74,596.8c-11.4,22.47-34.5,36.83-60.21,36.83l-275.08.02c-35.41,0-67.2-28.5-67.24-61.66l-.2-160.07c3.26-32.28,30.01-59.93,63.03-60.12l107.02-.61,174.54.37c27.58.06,52.57,19.67,61.33,45.15,3.59,10.45,4.02,20.51,4.02,31.42l-.03,135.77c0,11.62-1.68,22.07-7.18,32.92ZM594.8,515.68c8.16-4.65,12.84-10.95,13.33-19.47.41-7.16-2.36-16.46-9.73-20.75l-129.25-75.27c-7.52-4.38-15.56-5.41-23.55-1.31-5.91,3.04-12.5,9.81-12.5,18.31l-.11,151.64c0,8.44,5.06,15.72,10.96,19.23,7.07,4.21,16.07,4.38,23.44.18l127.42-72.57Z"/>
      <path class="cls-2" d="M594.8,515.68l-127.42,72.57c-7.37,4.2-16.37,4.03-23.44-.18-5.9-3.51-10.97-10.79-10.96-19.23l.11-151.64c0-8.5,6.59-15.27,12.5-18.31,7.98-4.1,16.03-3.07,23.55,1.31l129.25,75.27c7.37,4.29,10.14,13.59,9.73,20.75-.49,8.51-5.16,14.82-13.33,19.47Z"/>
    </g>
  </g>
</svg>
